<svg width="809" height="144" viewBox="0 0 809 144" fill="none" xmlns="http://www.w3.org/2000/svg">
<g clip-path="url(#clip0_113_2836)">
<rect width="809" height="144" fill="white"/>
<path d="M104.024 43.3125C103.952 42.811 103.856 42.3211 103.763 41.8294C100.098 22.8105 83.3447 9 63.9492 9C44.5439 9 27.7886 22.8105 24.1258 41.8099C24.0321 42.3114 23.9384 42.8129 23.8643 43.3125H9V81.6333C9 108.284 24.5219 128.706 48.6048 129.938C49.4498 129.979 50.3065 130 51.173 130H76.7058C76.9771 130 77.2483 130 77.5098 129.99C102.594 129.604 118.879 108.932 118.879 81.6333V43.3125H104.024ZM102.855 80.6634C102.855 97.4186 92.8756 109.311 76.7058 110.48H51.173C35.1183 109.311 25.0234 97.4167 25.0234 80.6634V62.8329H45.9007V43.3125H39.8252C42.6334 32.4136 52.539 24.6585 63.9492 24.6585C75.3379 24.6585 85.2435 32.4038 88.0516 43.3125H81.9761V62.8329H102.853V80.6634H102.855Z" fill="#28023E"/>
<path d="M71.64 77.1252C71.64 79.7507 70.3146 82.065 68.304 83.436V93.1642C68.304 95.2107 66.6409 96.8761 64.5937 96.8761H63.4462C61.4007 96.8761 59.736 95.2123 59.736 93.1642V83.4277C57.7254 82.0567 56.4 79.7423 56.4 77.1269C56.4 72.9174 59.8158 69.5 64.0233 69.5C68.2341 69.4983 71.64 72.9158 71.64 77.1252Z" fill="#28023E"/>
<path d="M163.517 32.6452L184.008 29.3446V50.6612H208.625V67.7144H184.008V93.1568C184.008 97.466 184.742 100.904 186.209 103.471C187.767 106.038 190.839 107.322 195.423 107.322C197.623 107.322 199.87 107.139 202.162 106.772C204.545 106.313 206.7 105.718 208.625 104.984L211.513 120.937C209.038 121.946 206.287 122.817 203.262 123.55C200.236 124.284 196.523 124.65 192.122 124.65C186.529 124.65 181.899 123.917 178.232 122.45C174.565 120.891 171.631 118.783 169.43 116.124C167.23 113.373 165.671 110.073 164.754 106.222C163.929 102.371 163.517 98.1077 163.517 93.4318V32.6452ZM268.908 68.8146C267.074 68.3562 264.92 67.8978 262.444 67.4394C259.969 66.8893 257.31 66.6142 254.468 66.6142C253.184 66.6142 251.626 66.7517 249.792 67.0268C248.05 67.2102 246.72 67.4394 245.804 67.7144V123H225.312V54.5119C228.98 53.2283 233.289 52.0364 238.24 50.9362C243.282 49.7443 248.875 49.1484 255.018 49.1484C256.118 49.1484 257.448 49.2401 259.006 49.4234C260.565 49.5151 262.123 49.6985 263.682 49.9735C265.241 50.1569 266.799 50.432 268.358 50.7987C269.917 51.0737 271.246 51.4405 272.346 51.8989L268.908 68.8146ZM345.08 120.525C341.596 121.533 337.104 122.45 331.603 123.275C326.102 124.192 320.326 124.65 314.275 124.65C308.132 124.65 302.997 123.825 298.872 122.175C294.838 120.525 291.629 118.232 289.245 115.299C286.861 112.273 285.165 108.697 284.156 104.571C283.148 100.446 282.644 95.9073 282.644 90.9564V50.6612H303.135V88.4809C303.135 95.0822 304.006 99.8497 305.748 102.784C307.49 105.718 310.745 107.184 315.512 107.184C316.979 107.184 318.538 107.139 320.188 107.047C321.838 106.864 323.305 106.68 324.589 106.497V50.6612H345.08V120.525ZM385.082 108.285C388.841 108.285 391.5 107.918 393.059 107.184C394.617 106.451 395.397 105.03 395.397 102.921C395.397 101.271 394.388 99.8497 392.371 98.6578C390.354 97.3743 387.283 95.9532 383.157 94.3945C379.948 93.2026 377.014 91.9649 374.355 90.6813C371.788 89.3977 369.588 87.885 367.754 86.143C365.92 84.3093 364.499 82.1547 363.491 79.6792C362.482 77.2037 361.978 74.224 361.978 70.74C361.978 63.9554 364.499 58.5919 369.542 54.6494C374.584 50.707 381.507 48.7358 390.308 48.7358C394.709 48.7358 398.927 49.1484 402.961 49.9735C406.995 50.707 410.204 51.5322 412.588 52.449L409.012 68.4021C406.628 67.5769 404.015 66.8434 401.173 66.2016C398.422 65.5599 395.305 65.239 391.821 65.239C385.403 65.239 382.194 67.0268 382.194 70.6025C382.194 71.4276 382.332 72.1611 382.607 72.8029C382.882 73.4447 383.432 74.0865 384.257 74.7283C385.082 75.2784 386.183 75.9202 387.558 76.6536C389.025 77.2954 390.858 78.0289 393.059 78.8541C397.551 80.5044 401.265 82.1547 404.198 83.805C407.132 85.3636 409.424 87.1056 411.075 89.031C412.817 90.8647 414.009 92.9276 414.65 95.2197C415.384 97.5118 415.751 100.171 415.751 103.196C415.751 110.348 413.046 115.757 407.637 119.424C402.319 123.092 394.755 124.925 384.945 124.925C378.527 124.925 373.163 124.375 368.854 123.275C364.637 122.175 361.703 121.258 360.053 120.525L363.491 103.884C366.975 105.259 370.55 106.359 374.218 107.184C377.885 107.918 381.507 108.285 385.082 108.285ZM430.377 32.6452L450.868 29.3446V50.6612H475.485V67.7144H450.868V93.1568C450.868 97.466 451.602 100.904 453.069 103.471C454.627 106.038 457.699 107.322 462.283 107.322C464.483 107.322 466.73 107.139 469.022 106.772C471.406 106.313 473.56 105.718 475.485 104.984L478.374 120.937C475.898 121.946 473.148 122.817 470.122 123.55C467.096 124.284 463.383 124.65 458.982 124.65C453.39 124.65 448.76 123.917 445.092 122.45C441.425 120.891 438.491 118.783 436.29 116.124C434.09 113.373 432.531 110.073 431.615 106.222C430.789 102.371 430.377 98.1077 430.377 93.4318V32.6452ZM542.677 86.2805C542.677 92.6067 544.098 97.6952 546.94 101.546C549.782 105.397 554 107.322 559.592 107.322C561.426 107.322 563.122 107.276 564.681 107.184C566.24 107.001 567.523 106.818 568.532 106.634V69.3647C567.248 68.5396 565.552 67.852 563.443 67.3018C561.426 66.7517 559.363 66.4767 557.255 66.4767C547.536 66.4767 542.677 73.078 542.677 86.2805ZM589.023 120.662C587.189 121.212 585.081 121.762 582.697 122.312C580.313 122.771 577.792 123.183 575.133 123.55C572.566 123.917 569.907 124.192 567.156 124.375C564.498 124.65 561.93 124.788 559.455 124.788C553.495 124.788 548.178 123.917 543.502 122.175C538.826 120.433 534.884 117.957 531.675 114.748C528.466 111.448 525.99 107.505 524.248 102.921C522.598 98.2453 521.773 93.0193 521.773 87.2432C521.773 81.3754 522.506 76.1035 523.973 71.4276C525.44 66.6601 527.549 62.626 530.299 59.3253C533.05 56.0247 536.396 53.5034 540.339 51.7614C544.373 50.0194 548.957 49.1484 554.091 49.1484C556.934 49.1484 559.455 49.4234 561.655 49.9735C563.947 50.5236 566.24 51.303 568.532 52.3115V19.5802L589.023 16.2796V120.662ZM635.853 108.697C637.87 108.697 639.795 108.651 641.629 108.56C643.463 108.468 644.93 108.331 646.03 108.147V92.6067C645.205 92.4233 643.967 92.24 642.317 92.0566C640.666 91.8732 639.154 91.7815 637.778 91.7815C635.853 91.7815 634.019 91.9191 632.277 92.1941C630.627 92.3775 629.16 92.7901 627.876 93.4318C626.593 94.0736 625.584 94.9446 624.851 96.0448C624.117 97.1451 623.751 98.5203 623.751 100.171C623.751 103.38 624.805 105.626 626.914 106.909C629.114 108.101 632.094 108.697 635.853 108.697ZM634.203 48.7358C640.254 48.7358 645.296 49.4234 649.331 50.7987C653.365 52.174 656.574 54.1452 658.957 56.7123C661.433 59.2795 663.175 62.3967 664.183 66.0641C665.192 69.7315 665.696 73.8114 665.696 78.304V120.937C662.762 121.579 658.682 122.312 653.456 123.138C648.23 124.054 641.904 124.513 634.478 124.513C629.802 124.513 625.538 124.1 621.688 123.275C617.929 122.45 614.674 121.12 611.923 119.287C609.173 117.361 607.064 114.886 605.597 111.86C604.13 108.835 603.397 105.122 603.397 100.721C603.397 96.5033 604.222 92.9276 605.872 89.9937C607.614 87.0598 609.906 84.7218 612.749 82.9798C615.591 81.2378 618.846 80.0001 622.513 79.2666C626.18 78.4415 629.985 78.0289 633.928 78.0289C636.586 78.0289 638.924 78.1664 640.941 78.4415C643.05 78.6248 644.746 78.8999 646.03 79.2666V77.3413C646.03 73.8573 644.976 71.0609 642.867 68.9522C640.758 66.8434 637.091 65.7891 631.865 65.7891C628.381 65.7891 624.943 66.0641 621.55 66.6142C618.158 67.0726 615.224 67.7603 612.749 68.6771L610.136 52.174C611.327 51.8072 612.794 51.4405 614.536 51.0737C616.37 50.6153 618.341 50.2486 620.45 49.9735C622.559 49.6068 624.759 49.3317 627.051 49.1484C629.435 48.8733 631.819 48.7358 634.203 48.7358ZM683.538 32.6452L704.029 29.3446V50.6612H728.647V67.7144H704.029V93.1568C704.029 97.466 704.763 100.904 706.23 103.471C707.788 106.038 710.86 107.322 715.444 107.322C717.645 107.322 719.891 107.139 722.183 106.772C724.567 106.313 726.721 105.718 728.647 104.984L731.535 120.937C729.059 121.946 726.309 122.817 723.283 123.55C720.258 124.284 716.544 124.65 712.143 124.65C706.551 124.65 701.921 123.917 698.253 122.45C694.586 120.891 691.652 118.783 689.452 116.124C687.251 113.373 685.693 110.073 684.776 106.222C683.951 102.371 683.538 98.1077 683.538 93.4318V32.6452ZM770.29 108.697C772.307 108.697 774.233 108.651 776.066 108.56C777.9 108.468 779.367 108.331 780.467 108.147V92.6067C779.642 92.4233 778.404 92.24 776.754 92.0566C775.104 91.8732 773.591 91.7815 772.216 91.7815C770.29 91.7815 768.457 91.9191 766.715 92.1941C765.064 92.3775 763.597 92.7901 762.314 93.4318C761.03 94.0736 760.022 94.9446 759.288 96.0448C758.555 97.1451 758.188 98.5203 758.188 100.171C758.188 103.38 759.242 105.626 761.351 106.909C763.551 108.101 766.531 108.697 770.29 108.697ZM768.64 48.7358C774.691 48.7358 779.734 49.4234 783.768 50.7987C787.802 52.174 791.011 54.1452 793.395 56.7123C795.87 59.2795 797.612 62.3967 798.621 66.0641C799.629 69.7315 800.133 73.8114 800.133 78.304V120.937C797.2 121.579 793.12 122.312 787.894 123.138C782.668 124.054 776.341 124.513 768.915 124.513C764.239 124.513 759.976 124.1 756.125 123.275C752.366 122.45 749.111 121.12 746.361 119.287C743.61 117.361 741.501 114.886 740.034 111.86C738.568 108.835 737.834 105.122 737.834 100.721C737.834 96.5033 738.659 92.9276 740.31 89.9937C742.052 87.0598 744.344 84.7218 747.186 82.9798C750.028 81.2378 753.283 80.0001 756.95 79.2666C760.618 78.4415 764.422 78.0289 768.365 78.0289C771.024 78.0289 773.362 78.1664 775.379 78.4415C777.487 78.6248 779.184 78.8999 780.467 79.2666V77.3413C780.467 73.8573 779.413 71.0609 777.304 68.9522C775.195 66.8434 771.528 65.7891 766.302 65.7891C762.818 65.7891 759.38 66.0641 755.988 66.6142C752.595 67.0726 749.661 67.7603 747.186 68.6771L744.573 52.174C745.765 51.8072 747.232 51.4405 748.974 51.0737C750.807 50.6153 752.779 50.2486 754.887 49.9735C756.996 49.6068 759.196 49.3317 761.489 49.1484C763.872 48.8733 766.256 48.7358 768.64 48.7358Z" fill="#28023E"/>
</g>
<defs>
<clipPath id="clip0_113_2836">
<rect width="809" height="144" fill="white"/>
</clipPath>
</defs>
</svg>
